<svg width="36" height="36" viewBox="0 0 36 36" fill="none" xmlns="http://www.w3.org/2000/svg">
<circle cx="18" cy="18" r="18" fill="#008DE0"/>
<path d="M27.9899 25.3902L26.7174 14.5902C26.6319 13.8618 26.0158 13.3154 25.2883 13.3203H22.2868C22.2868 10.935 20.3674 9 18.0013 9C15.6352 9 13.7159 10.935 13.7159 13.3203H10.7111C9.98367 13.3154 9.36755 13.8618 9.28207 14.5902L8.0095 25.3902C7.96273 25.7984 8.09014 26.2065 8.3595 26.5138C8.63207 26.8211 9.02239 26.9984 9.43207 27H26.5641C26.9754 27 27.369 26.8228 27.6415 26.5138C27.9109 26.2065 28.0383 25.7984 27.9899 25.3902ZM18.0013 10.4407C19.5787 10.4407 20.8577 11.7301 20.8577 13.3203H15.1449C15.1449 11.7301 16.4239 10.4407 18.0013 10.4407ZM17.9997 23.5187C16.0868 23.5187 14.5368 21.9561 14.5368 20.0276C14.5368 18.0992 16.0868 16.5382 17.9997 16.5382C19.9126 16.5382 21.4626 18.1008 21.4626 20.0276C21.4626 21.9545 19.9126 23.5187 17.9997 23.5187Z" fill="white"/>
<path d="M19.7061 19.8046L17.3513 18.3525C17.2706 18.3021 17.169 18.3005 17.0868 18.3477C17.0045 18.3932 16.9529 18.481 16.9529 18.5753V21.4794C16.9529 21.5753 17.0045 21.6615 17.0868 21.707C17.169 21.7542 17.2706 21.7525 17.3513 21.7021L19.7061 20.2501C19.7835 20.2029 19.8303 20.1184 19.8303 20.0273C19.8303 19.9363 19.7835 19.8517 19.7061 19.8046Z" fill="white"/>
</svg>
