<svg width="30" height="31" viewBox="0 0 30 31" fill="none" xmlns="http://www.w3.org/2000/svg">
<rect y="0.605957" width="30" height="30" rx="15" fill="#ECBA12"/>
<g clip-path="url(#clip0_159_5)">
<path d="M21.7904 14.1238C21.7904 14.1305 21.7904 14.1365 21.7862 14.1432L20.408 20.4548C20.3656 20.677 20.247 20.8775 20.0726 21.0217C19.8983 21.1659 19.6791 21.2447 19.4528 21.2447H10.5467C10.3205 21.2446 10.1015 21.1657 9.92721 21.0215C9.75298 20.8773 9.63446 20.6769 9.59205 20.4548L8.21393 14.1432C8.21393 14.1365 8.21089 14.1305 8.20968 14.1238C8.17196 13.9148 8.20369 13.6992 8.30003 13.51C8.39636 13.3208 8.552 13.1683 8.74316 13.0758C8.93433 12.9834 9.1505 12.9561 9.35865 12.998C9.5668 13.04 9.75549 13.149 9.89587 13.3083L11.9418 15.5134L14.1171 10.6347C14.1172 10.6327 14.1172 10.6307 14.1171 10.6286C14.1949 10.4599 14.3194 10.317 14.4759 10.2169C14.6324 10.1167 14.8143 10.0635 15 10.0635C15.1858 10.0635 15.3677 10.1167 15.5242 10.2169C15.6807 10.317 15.8052 10.4599 15.8829 10.6286C15.8828 10.6307 15.8828 10.6327 15.8829 10.6347L18.0583 15.5134L20.1042 13.3083C20.2449 13.1502 20.4333 13.0423 20.6409 13.001C20.8485 12.9597 21.0639 12.9873 21.2544 13.0795C21.4449 13.1718 21.6 13.3237 21.6963 13.5121C21.7926 13.7006 21.8248 13.9153 21.788 14.1238H21.7904Z" fill="white"/>
</g>
<defs>
<clipPath id="clip0_159_5">
<rect width="14" height="12.4444" fill="white" transform="translate(8 9.38379)"/>
</clipPath>
</defs>
</svg>
